<svg width="210" height="39" viewBox="0 0 210 39" fill="none" xmlns="http://www.w3.org/2000/svg">
<path d="M0 38.2558L4.42614 30.6047H39.8285L13.2784 15.3023L22.1307 0L44.2546 38.2558H0Z" fill="#667EEA"/>
<path d="M79.4693 30.6246H77.4776V15.3691H61.8654L53.8179 29.2791C53.335 30.1092 52.4498 30.6246 51.4841 30.6246H49.9349V35.4108H79.4693V30.6246ZM65.4599 20.1553H72.1863V30.6246H59.4176L65.4599 20.1553Z" fill="#667EEA"/>
<path d="M104.765 30.6246H107.273C107.91 30.6246 108.454 30.1761 108.574 29.5536L111.324 15.3691H128.572V35.4108H123.281V20.1486H115.79L113.752 30.638C113.215 33.4093 110.781 35.4108 107.951 35.4108H104.759V30.6246H104.765Z" fill="#667EEA"/>
<path d="M144.956 20.1687H135.715V15.3691H130.424V35.4108H144.956C149.174 35.4108 152.594 31.9969 152.594 27.7864C152.594 23.5826 149.174 20.1687 144.956 20.1687ZM144.238 30.6246H135.715V24.9482H144.238C145.808 24.9482 147.082 26.22 147.082 27.7864C147.082 29.3528 145.814 30.6246 144.238 30.6246Z" fill="#667EEA"/>
<path d="M103.23 30.6246H86.2962V27.7797H101.439V23.0002H86.2962V20.1486H102.82V15.3691H81.005V35.4108L103.23 35.4041V30.6246Z" fill="#667EEA"/>
<path d="M203.629 35.4108H210L198.432 15.3691H190.337L178.769 35.4108H185.14L186.521 33.0143H202.254L203.629 35.4108ZM189.278 28.2349L193.945 20.1553H194.824L199.491 28.2349H189.278Z" fill="#667EEA"/>
<path d="M174.443 17.7659H170.493V15.3628H165.202V17.7659H161.252C157.034 17.7659 153.614 21.1798 153.614 25.3903C153.614 29.6008 157.034 33.0147 161.252 33.0147H165.202V35.4178H170.493V33.0147H174.443C178.662 33.0147 182.082 29.6008 182.082 25.3903C182.082 21.1731 178.662 17.7659 174.443 17.7659ZM165.202 28.2218H161.963C160.394 28.2218 159.119 26.95 159.119 25.3836C159.119 23.8172 160.394 22.5454 161.963 22.5454H165.202V28.2218ZM173.726 28.2218H170.487V22.5454H173.726C175.295 22.5454 176.569 23.8172 176.569 25.3836C176.569 26.95 175.295 28.2218 173.726 28.2218Z" fill="#667EEA"/>
</svg>
